<?xml version="1.0" standalone="no"?>
<!DOCTYPE svg PUBLIC "-//W3C//DTD SVG 20010904//EN"
 "http://www.w3.org/TR/2001/REC-SVG-20010904/DTD/svg10.dtd">
<svg version="1.0" xmlns="http://www.w3.org/2000/svg"
 width="610.000000pt" height="149.000000pt" viewBox="0 0 610.000000 149.000000"
 preserveAspectRatio="xMidYMid meet">

<g transform="translate(0.000000,149.000000) scale(0.100000,-0.100000)"
fill="#000000" stroke="none">
<path d="M315 1131 c-6 -6 -7 -127 -1 -326 l9 -315 23 -6 c13 -4 34 -4 47 -1
l22 6 -3 307 c-2 178 -7 315 -13 325 -10 20 -67 27 -84 10z"/>
<path d="M729 1138 c0 -2 -2 -142 -3 -313 -2 -171 -5 -317 -7 -325 -5 -20 46
-26 68 -8 17 13 16 59 -3 393 -6 100 -5 109 9 95 18 -17 121 -176 152 -235 28
-53 77 -125 138 -203 44 -56 53 -63 81 -60 l31 3 3 255 c2 140 0 288 -3 328
-6 67 -8 72 -30 72 -43 0 -45 -15 -35 -201 5 -96 12 -209 14 -251 2 -43 0 -80
-4 -83 -5 -3 -21 17 -37 43 -29 51 -157 251 -256 403 -51 79 -62 89 -88 89
-16 0 -29 -1 -30 -2z"/>
<path d="M2112 1068 c-7 -7 -12 -33 -12 -59 0 -46 -1 -48 -32 -51 -26 -2 -34
-8 -36 -26 -3 -21 0 -23 30 -20 l33 3 5 -192 c5 -186 6 -192 29 -217 32 -34
110 -37 141 -6 22 22 24 29 12 48 -6 9 -16 10 -33 3 -16 -5 -31 -5 -42 0 -15
9 -17 31 -17 189 l0 180 54 0 c45 0 54 3 59 20 5 18 0 20 -55 20 l-61 0 7 54
c5 44 3 55 -10 60 -25 10 -59 7 -72 -6z"/>
<path d="M1543 951 c-23 -11 -46 -28 -52 -39 -16 -30 -13 -104 5 -130 8 -12
65 -50 125 -83 109 -62 129 -80 129 -118 0 -54 -112 -81 -176 -42 -30 18 -52
70 -38 92 8 14 -50 11 -64 -3 -17 -17 -15 -69 3 -95 26 -36 94 -56 182 -51 91
4 129 20 160 67 52 77 18 136 -116 202 -132 64 -168 112 -121 159 15 15 33 20
70 20 57 0 90 -24 90 -65 0 -31 23 -42 56 -27 50 23 21 95 -49 121 -46 18
-157 13 -204 -8z"/>
<path d="M2613 951 c-48 -22 -63 -45 -63 -95 0 -25 7 -40 26 -55 42 -33 118
-24 79 9 -9 7 -15 29 -15 51 0 46 27 69 83 69 51 0 76 -15 93 -55 15 -36 19
-115 7 -115 -49 -1 -153 -25 -196 -44 -68 -30 -97 -69 -97 -129 0 -70 30 -99
107 -105 69 -5 107 10 166 66 l37 36 0 -27 c0 -57 75 -96 129 -67 43 23 35 72
-9 63 -37 -7 -39 1 -42 179 -3 149 -9 165 -72 212 -40 30 -174 34 -233 7z
m217 -267 c-20 -87 -115 -167 -173 -145 -50 19 -47 95 4 133 35 26 97 47 140
48 l37 0 -8 -36z"/>
<path d="M3303 951 c-80 -37 -120 -135 -110 -270 9 -138 61 -201 165 -201 56
0 83 10 120 43 l22 20 0 -52 c0 -61 -17 -107 -55 -141 -21 -20 -37 -25 -79
-25 -30 0 -60 6 -69 14 -19 15 -23 71 -6 88 20 20 -26 36 -58 21 -55 -27 -50
-97 10 -142 24 -18 43 -21 121 -21 84 0 96 2 134 28 23 15 52 46 64 70 22 40
23 55 26 289 l3 247 -43 22 c-62 32 -187 37 -245 10z m172 -33 c14 -6 28 -23
32 -36 8 -35 -4 -221 -18 -262 -25 -76 -85 -110 -145 -85 -43 18 -58 67 -58
180 0 101 21 175 57 200 26 18 96 20 132 3z"/>
<path d="M3836 949 c-19 -27 -10 -49 19 -49 13 0 26 -7 29 -16 3 -9 6 -101 6
-205 l0 -189 25 -6 c14 -3 35 -4 48 -1 22 6 22 8 19 159 -4 175 6 226 51 264
27 22 32 23 51 11 20 -14 27 -56 15 -97 -3 -11 5 -15 30 -15 25 0 39 7 54 27
18 24 19 32 8 68 -15 52 -55 74 -123 68 -36 -4 -57 -13 -78 -33 -21 -20 -30
-24 -30 -13 0 46 -96 67 -124 27z"/>
<path d="M4493 951 c-48 -22 -63 -45 -63 -95 0 -59 55 -93 113 -70 13 5 13 8
-4 25 -25 25 -24 74 1 99 22 22 88 27 121 10 28 -16 49 -63 49 -114 l0 -45
-47 -6 c-123 -16 -204 -50 -237 -99 -25 -38 -21 -109 7 -142 20 -23 34 -28 84
-32 70 -5 129 19 165 68 27 37 38 38 38 5 0 -14 11 -37 25 -50 46 -47 144 -23
133 32 -3 14 -11 17 -35 15 l-30 -3 -5 148 c-5 178 -21 222 -91 254 -57 25
-167 25 -224 0z m213 -275 c-8 -25 -23 -58 -35 -74 -23 -33 -101 -75 -128 -70
-28 5 -47 49 -39 91 11 58 77 92 183 96 l32 1 -13 -44z"/>
<path d="M5078 958 c-20 -17 -28 -42 -18 -58 7 -11 11 -11 24 -1 9 7 23 11 31
7 13 -4 15 -36 15 -204 0 -212 2 -222 50 -222 43 0 49 10 39 65 -12 75 -11
232 3 278 17 56 67 107 106 107 77 0 96 -61 87 -273 -8 -161 -4 -177 44 -177
46 0 49 8 39 90 -5 41 -8 114 -6 161 3 75 7 92 33 135 50 79 121 86 158 14 17
-31 18 -53 13 -207 -6 -190 -4 -197 56 -191 l32 3 -2 175 c-3 170 -11 228 -35
261 -26 33 -62 49 -112 49 -60 0 -107 -25 -130 -70 -8 -16 -17 -30 -20 -30 -2
0 -14 18 -26 39 -27 49 -63 65 -131 59 -45 -5 -57 -11 -86 -44 -27 -31 -35
-36 -42 -24 -5 8 -10 20 -10 27 0 37 -78 58 -112 31z"/>
</g>
</svg>
